<?xml version="1.0" standalone="no"?><!-- Generator: Gravit.io --><svg xmlns="http://www.w3.org/2000/svg" xmlns:xlink="http://www.w3.org/1999/xlink" style="isolation:isolate" viewBox="123.5 198.217 2543.6 603.566" width="2543.6" height="603.566"><g id="Group"><g id="Group"><linearGradient id="_lgradient_0" x1="-0.35994361757818605%" y1="98.23816643082608%" x2="70.26774901923164%" y2="28.60641983630996%"><stop offset="1.7391304347826086%" stop-opacity="1" style="stop-color:rgb(70,70,70)"/><stop offset="100%" stop-opacity="1" style="stop-color:rgb(209,209,209)"/></linearGradient><path d=" M 263 686 L 806 686 L 806 230 L 124 230 L 124 686 L 124 802 L 263 686 Z " fill="url(#_lgradient_0)"/><linearGradient id="_lgradient_1" x1="21.625935456935075%" y1="24.355656673922457%" x2="98.91937077002973%" y2="96.34397322020888%"><stop offset="3.0434782608695654%" stop-opacity="1" style="stop-color:rgb(70,70,70)"/><stop offset="100%" stop-opacity="1" style="stop-color:rgb(0,0,0)"/></linearGradient><path d=" M 851 654 L 851 198 L 168 198 L 168 654 L 712 654 L 851 770 L 851 654 Z " fill="url(#_lgradient_1)"/><rect x="296.645" y="306.879" width="434.648" height="40.4" transform="matrix(1,0,0,1,0,0)" fill="rgb(255,255,255)"/><rect x="296.645" y="405.79" width="434.648" height="40.4" transform="matrix(1,0,0,1,0,0)" fill="rgb(255,255,255)"/><rect x="296.645" y="504.7" width="434.648" height="40.4" transform="matrix(1,0,0,1,0,0)" fill="rgb(255,255,255)"/></g><path d=" M 1066 419 L 1066 419 L 1066 419 Q 1071 419 1077 420 L 1077 420 L 1077 420 Q 1084 420 1090 421 L 1090 421 L 1090 421 Q 1096 422 1101 423 L 1101 423 L 1101 423 Q 1106 424 1108 425 L 1108 425 L 1102 458 L 1102 458 Q 1097 456 1087 454 L 1087 454 L 1087 454 Q 1077 452 1061 452 L 1061 452 L 1061 452 Q 1050 452 1040 454 L 1040 454 L 1040 454 Q 1030 456 1027 457 L 1027 457 L 1027 632 L 990 632 L 990 432 L 990 432 Q 1003 428 1022 423 L 1022 423 L 1022 423 Q 1042 419 1066 419 Z  M 1214 605 L 1214 605 L 1214 605 Q 1228 605 1238 604 L 1238 604 L 1238 604 Q 1248 604 1255 602 L 1255 602 L 1255 540 L 1255 540 Q 1251 538 1242 537 L 1242 537 L 1242 537 Q 1233 535 1220 535 L 1220 535 L 1220 535 Q 1212 535 1202 536 L 1202 536 L 1202 536 Q 1193 538 1185 541 L 1185 541 L 1185 541 Q 1177 545 1172 552 L 1172 552 L 1172 552 Q 1167 558 1167 569 L 1167 569 L 1167 569 Q 1167 589 1180 597 L 1180 597 L 1180 597 Q 1192 605 1214 605 Z  M 1211 418 L 1211 418 L 1211 418 Q 1234 418 1249 424 L 1249 424 L 1249 424 Q 1264 430 1274 441 L 1274 441 L 1274 441 Q 1283 451 1287 466 L 1287 466 L 1287 466 Q 1291 480 1291 498 L 1291 498 L 1291 628 L 1291 628 Q 1286 629 1278 630 L 1278 630 L 1278 630 Q 1269 632 1258 633 L 1258 633 L 1258 633 Q 1248 634 1235 635 L 1235 635 L 1235 635 Q 1222 636 1210 636 L 1210 636 L 1210 636 Q 1192 636 1178 632 L 1178 632 L 1178 632 Q 1163 629 1152 621 L 1152 621 L 1152 621 Q 1141 613 1135 600 L 1135 600 L 1135 600 Q 1129 588 1129 570 L 1129 570 L 1129 570 Q 1129 552 1136 540 L 1136 540 L 1136 540 Q 1143 528 1155 520 L 1155 520 L 1155 520 Q 1167 512 1183 509 L 1183 509 L 1183 509 Q 1199 505 1217 505 L 1217 505 L 1217 505 Q 1222 505 1228 506 L 1228 506 L 1228 506 Q 1234 506 1240 507 L 1240 507 L 1240 507 Q 1245 508 1249 509 L 1249 509 L 1249 509 Q 1253 510 1255 510 L 1255 510 L 1255 500 L 1255 500 Q 1255 491 1253 482 L 1253 482 L 1253 482 Q 1251 473 1246 466 L 1246 466 L 1246 466 Q 1240 459 1231 455 L 1231 455 L 1231 455 Q 1222 450 1208 450 L 1208 450 L 1208 450 Q 1190 450 1176 453 L 1176 453 L 1176 453 Q 1162 456 1155 458 L 1155 458 L 1151 428 L 1151 428 Q 1158 424 1175 421 L 1175 421 L 1175 421 Q 1192 418 1211 418 Z  M 1353 632 L 1353 430 L 1353 430 Q 1366 426 1387 423 L 1387 423 L 1387 423 Q 1408 419 1436 419 L 1436 419 L 1436 419 Q 1460 419 1477 426 L 1477 426 L 1477 426 Q 1493 433 1503 446 L 1503 446 L 1503 446 Q 1513 458 1517 476 L 1517 476 L 1517 476 Q 1521 494 1521 515 L 1521 515 L 1521 632 L 1484 632 L 1484 523 L 1484 523 Q 1484 504 1481 490 L 1481 490 L 1481 490 Q 1478 476 1472 468 L 1472 468 L 1472 468 Q 1466 460 1456 456 L 1456 456 L 1456 456 Q 1446 452 1432 452 L 1432 452 L 1432 452 Q 1426 452 1419 452 L 1419 452 L 1419 452 Q 1413 453 1407 453 L 1407 453 L 1407 453 Q 1401 454 1397 455 L 1397 455 L 1397 455 Q 1392 456 1390 456 L 1390 456 L 1390 632 L 1353 632 L 1353 632 Z  M 1717 599 L 1717 468 L 1717 468 Q 1710 462 1697 457 L 1697 457 L 1697 457 Q 1684 452 1669 452 L 1669 452 L 1669 452 Q 1653 452 1642 457 L 1642 457 L 1642 457 Q 1630 463 1623 473 L 1623 473 L 1623 473 Q 1616 484 1613 498 L 1613 498 L 1613 498 Q 1610 512 1610 528 L 1610 528 L 1610 528 Q 1610 564 1628 584 L 1628 584 L 1628 584 Q 1646 604 1676 604 L 1676 604 L 1676 604 Q 1691 604 1701 602 L 1701 602 L 1701 602 Q 1711 601 1717 599 L 1717 599 L 1717 599 Z  M 1717 433 L 1717 328 L 1754 321 L 1754 626 L 1754 626 Q 1741 629 1721 633 L 1721 633 L 1721 633 Q 1701 636 1675 636 L 1675 636 L 1675 636 Q 1651 636 1632 629 L 1632 629 L 1632 629 Q 1613 621 1599 607 L 1599 607 L 1599 607 Q 1586 593 1578 573 L 1578 573 L 1578 573 Q 1571 553 1571 528 L 1571 528 L 1571 528 Q 1571 504 1577 484 L 1577 484 L 1577 484 Q 1583 464 1595 449 L 1595 449 L 1595 449 Q 1607 435 1625 427 L 1625 427 L 1625 427 Q 1642 419 1664 419 L 1664 419 L 1664 419 Q 1682 419 1696 424 L 1696 424 L 1696 424 Q 1710 428 1717 433 L 1717 433 L 1717 433 Z  M 2002 528 L 2002 528 L 2002 528 Q 2002 552 1994 572 L 1994 572 L 1994 572 Q 1987 592 1974 607 L 1974 607 L 1974 607 Q 1961 621 1943 629 L 1943 629 L 1943 629 Q 1925 637 1904 637 L 1904 637 L 1904 637 Q 1883 637 1865 629 L 1865 629 L 1865 629 Q 1847 621 1834 607 L 1834 607 L 1834 607 Q 1821 592 1814 572 L 1814 572 L 1814 572 Q 1806 552 1806 528 L 1806 528 L 1806 528 Q 1806 503 1814 483 L 1814 483 L 1814 483 Q 1821 463 1834 448 L 1834 448 L 1834 448 Q 1847 434 1865 426 L 1865 426 L 1865 426 Q 1883 418 1904 418 L 1904 418 L 1904 418 Q 1925 418 1943 426 L 1943 426 L 1943 426 Q 1961 434 1974 448 L 1974 448 L 1974 448 Q 1987 463 1994 483 L 1994 483 L 1994 483 Q 2002 503 2002 528 Z  M 1963 528 L 1963 528 L 1963 528 Q 1963 492 1947 472 L 1947 472 L 1947 472 Q 1931 451 1904 451 L 1904 451 L 1904 451 Q 1877 451 1861 472 L 1861 472 L 1861 472 Q 1845 492 1845 528 L 1845 528 L 1845 528 Q 1845 563 1861 583 L 1861 583 L 1861 583 Q 1877 604 1904 604 L 1904 604 L 1904 604 Q 1931 604 1947 583 L 1947 583 L 1947 583 Q 1963 563 1963 528 Z  M 2054 632 L 2054 430 L 2054 430 Q 2067 426 2088 423 L 2088 423 L 2088 423 Q 2109 419 2136 419 L 2136 419 L 2136 419 Q 2156 419 2170 425 L 2170 425 L 2170 425 Q 2184 430 2193 440 L 2193 440 L 2193 440 Q 2196 438 2202 435 L 2202 435 L 2202 435 Q 2208 431 2216 428 L 2216 428 L 2216 428 Q 2225 424 2236 422 L 2236 422 L 2236 422 Q 2247 419 2259 419 L 2259 419 L 2259 419 Q 2283 419 2298 426 L 2298 426 L 2298 426 Q 2314 433 2322 446 L 2322 446 L 2322 446 Q 2331 459 2334 476 L 2334 476 L 2334 476 Q 2337 494 2337 515 L 2337 515 L 2337 632 L 2300 632 L 2300 523 L 2300 523 Q 2300 504 2298 491 L 2298 491 L 2298 491 Q 2296 478 2291 469 L 2291 469 L 2291 469 Q 2286 460 2277 456 L 2277 456 L 2277 456 Q 2269 452 2255 452 L 2255 452 L 2255 452 Q 2236 452 2224 457 L 2224 457 L 2224 457 Q 2212 462 2208 466 L 2208 466 L 2208 466 Q 2211 476 2212 489 L 2212 489 L 2212 489 Q 2214 501 2214 515 L 2214 515 L 2214 632 L 2177 632 L 2177 523 L 2177 523 Q 2177 504 2175 491 L 2175 491 L 2175 491 Q 2173 478 2168 469 L 2168 469 L 2168 469 Q 2163 460 2154 456 L 2154 456 L 2154 456 Q 2146 452 2132 452 L 2132 452 L 2132 452 Q 2127 452 2120 452 L 2120 452 L 2120 452 Q 2114 453 2108 453 L 2108 453 L 2108 453 Q 2102 454 2098 455 L 2098 455 L 2098 455 Q 2093 456 2091 456 L 2091 456 L 2091 632 L 2054 632 L 2054 632 Z  M 2466 604 L 2461 636 L 2461 636 Q 2426 635 2412 621 L 2412 621 L 2412 621 Q 2398 607 2398 577 L 2398 577 L 2398 328 L 2435 321 L 2435 571 L 2435 571 Q 2435 580 2436 586 L 2436 586 L 2436 586 Q 2438 592 2442 596 L 2442 596 L 2442 596 Q 2445 600 2451 601 L 2451 601 L 2451 601 Q 2457 603 2466 604 L 2466 604 L 2466 604 Z  M 2476 700 L 2483 670 L 2483 670 Q 2488 672 2495 674 L 2495 674 L 2495 674 Q 2502 676 2508 676 L 2508 676 L 2508 676 Q 2530 676 2543 666 L 2543 666 L 2543 666 Q 2555 656 2565 634 L 2565 634 L 2565 634 Q 2540 586 2518 533 L 2518 533 L 2518 533 Q 2496 479 2482 424 L 2482 424 L 2522 424 L 2522 424 Q 2526 442 2533 462 L 2533 462 L 2533 462 Q 2539 483 2546 505 L 2546 505 L 2546 505 Q 2554 527 2563 549 L 2563 549 L 2563 549 Q 2572 571 2581 592 L 2581 592 L 2581 592 Q 2596 550 2608 508 L 2608 508 L 2608 508 Q 2619 467 2629 424 L 2629 424 L 2667 424 L 2667 424 Q 2653 482 2635 537 L 2635 537 L 2635 537 Q 2618 591 2597 638 L 2597 638 L 2597 638 Q 2589 656 2581 669 L 2581 669 L 2581 669 Q 2572 682 2562 690 L 2562 690 L 2562 690 Q 2551 699 2538 703 L 2538 703 L 2538 703 Q 2525 707 2509 707 L 2509 707 L 2509 707 Q 2504 707 2500 706 L 2500 706 L 2500 706 Q 2495 706 2490 705 L 2490 705 L 2490 705 Q 2486 704 2482 702 L 2482 702 L 2482 702 Q 2478 701 2476 700 L 2476 700 L 2476 700 Z " fill-rule="evenodd" fill="rgb(46,46,46)"/></g></svg>