<svg xmlns="http://www.w3.org/2000/svg" viewBox="0 0 790.01 731"><title>Asset 4</title><g id="Layer_2" data-name="Layer 2"><g id="Layer_1-2" data-name="Layer 1"><path d="M255.59,48.22l259.68-.63a34.83,34.83,0,0,1,35.08,34.57l1.4,566.16a34.82,34.82,0,0,1-34.91,34.74l-259.68.62a34.83,34.83,0,0,1-35.09-34.56L220.67,83A34.84,34.84,0,0,1,255.59,48.22Z" opacity="0.12" style="isolation:isolate"/><path d="M259,53.21l252.32-.61A34.84,34.84,0,0,1,546.4,87.16l1.37,556.13A34.81,34.81,0,0,1,512.86,678l-252.32.61a34.81,34.81,0,0,1-35.08-34.55L224.09,87.94A34.82,34.82,0,0,1,259,53.21Z" fill="#fff"/><rect x="230.77" y="70.91" width="310.32" height="595.88" rx="35" ry="35" transform="translate(-0.9 0.94) rotate(-0.14)" opacity="0.15" style="isolation:isolate"/><g opacity="0.5"><rect x="84" y="714" width="3" height="17" fill="#47e6b1"/><rect x="77" y="721" width="17" height="3" fill="#47e6b1"/></g><g opacity="0.5"><rect x="633" y="192" width="3" height="17" fill="#47e6b1"/><rect x="626" y="199" width="17" height="3" fill="#47e6b1"/></g><g opacity="0.5"><rect x="697" y="612" width="3" height="17" fill="#47e6b1"/><rect x="690" y="619" width="17" height="3" fill="#47e6b1"/></g><g opacity="0.5"><rect x="508" width="3" height="17" fill="#47e6b1"/><rect x="501" y="7" width="17" height="3" fill="#47e6b1"/></g><path d="M258.7,712.31a3.68,3.68,0,0,1-2-4.44,1.86,1.86,0,0,0,.08-.41h0a1.84,1.84,0,0,0-3.31-1.22h0a1.58,1.58,0,0,0-.2.36,3.68,3.68,0,0,1-4.44,2,1.86,1.86,0,0,0-.41-.08h0a1.84,1.84,0,0,0-1.22,3.31h0a1.58,1.58,0,0,0,.36.2,3.68,3.68,0,0,1,2,4.44,1.86,1.86,0,0,0-.08.41h0a1.84,1.84,0,0,0,3.31,1.22h0a1.58,1.58,0,0,0,.2-.36,3.68,3.68,0,0,1,4.44-2,1.86,1.86,0,0,0,.41.08h0a1.84,1.84,0,0,0,1.22-3.31h0A1.58,1.58,0,0,0,258.7,712.31Z" fill="#4d8af0" opacity="0.5" style="isolation:isolate"/><path d="M57.9,395a3.68,3.68,0,0,1-2-4.44,1.86,1.86,0,0,0,.08-.41h0a1.84,1.84,0,0,0-3.31-1.22h0a1.58,1.58,0,0,0-.2.36,3.68,3.68,0,0,1-4.44,2,1.86,1.86,0,0,0-.41-.08h0a1.84,1.84,0,0,0-1.22,3.31h0a1.58,1.58,0,0,0,.36.2,3.68,3.68,0,0,1,2,4.44,1.86,1.86,0,0,0-.08.41h0A1.84,1.84,0,0,0,52,400.8h0a1.58,1.58,0,0,0,.2-.36,3.68,3.68,0,0,1,4.44-2,1.86,1.86,0,0,0,.41.08h0a1.84,1.84,0,0,0,1.22-3.31h0a1.85,1.85,0,0,0-.37-.25Z" fill="#4d8af0" opacity="0.5" style="isolation:isolate"/><path d="M166.9,482a3.68,3.68,0,0,1-2-4.44,1.86,1.86,0,0,0,.08-.41h0a1.84,1.84,0,0,0-3.31-1.22h0a1.58,1.58,0,0,0-.2.36,3.68,3.68,0,0,1-4.44,2,1.86,1.86,0,0,0-.41-.08h0a1.84,1.84,0,0,0-1.22,3.31h0a1.58,1.58,0,0,0,.36.2,3.68,3.68,0,0,1,2,4.44,1.86,1.86,0,0,0-.08.41h0A1.84,1.84,0,0,0,161,487.8h0a1.58,1.58,0,0,0,.2-.36,3.68,3.68,0,0,1,4.44-2,1.86,1.86,0,0,0,.41.08h0a1.84,1.84,0,0,0,1.22-3.31h0A1.85,1.85,0,0,0,166.9,482Z" fill="#4d8af0" opacity="0.5" style="isolation:isolate"/><path d="M788.9,718a3.68,3.68,0,0,1-2-4.44,1.86,1.86,0,0,0,.08-.41h0a1.84,1.84,0,0,0-3.31-1.22h0a1.58,1.58,0,0,0-.2.36,3.68,3.68,0,0,1-4.44,2,1.86,1.86,0,0,0-.41-.08h0a1.84,1.84,0,0,0-1.22,3.31h0a1.58,1.58,0,0,0,.36.2,3.68,3.68,0,0,1,2,4.44,1.86,1.86,0,0,0-.08.41h0A1.84,1.84,0,0,0,783,723.8h0a1.58,1.58,0,0,0,.2-.36,3.68,3.68,0,0,1,4.44-2,1.86,1.86,0,0,0,.41.08h0a1.84,1.84,0,0,0,1.22-3.31h0a1.85,1.85,0,0,0-.37-.25Z" fill="#4d8af0" opacity="0.5" style="isolation:isolate"/><circle cx="6" cy="659" r="6" fill="#f55f44" opacity="0.5" style="isolation:isolate"/><circle cx="683" cy="64" r="6" fill="#4d8af0" opacity="0.5" style="isolation:isolate"/><circle cx="104" cy="76" r="6" fill="#47e6b1" opacity="0.5" style="isolation:isolate"/><circle cx="689" cy="346" r="6" fill="#f55f44" opacity="0.5" style="isolation:isolate"/><path d="M710.82,259.49,748,381.07,579.75,432.51,542.58,310.93Z" opacity="0.15" style="isolation:isolate"/><path d="M708.11,264.88l35.16,115L584.12,428.53,549,313.53Z" fill="#fff"/><rect x="593.29" y="326.31" width="78.94" height="8.91" transform="translate(-69.06 199.46) rotate(-17)" fill="#1a1a1a"/><rect x="598.42" y="341.01" width="106.57" height="8.91" transform="translate(-72.53 205.64) rotate(-17)" fill="#1a1a1a"/><rect x="604.41" y="361.48" width="94.73" height="8.91" transform="translate(-78.51 206.55) rotate(-17)" fill="#1a1a1a"/><path d="M727.12,387.46,748,381.07l6.42,21Z" opacity="0.15" style="isolation:isolate"/><path d="M724.38,384.58l18.5-5.66,5.69,18.6Z" fill="#fff"/><path d="M579.8,554.63,565.58,627.8l101.26,19.69,14.23-73.18Z" opacity="0.15" style="isolation:isolate"/><path d="M581.71,557.6l-13.45,69.22,95.79,18.62,13.45-69.22Z" fill="#fff"/><rect x="627.08" y="568.26" width="5.22" height="46.29" transform="translate(-71 1096.68) rotate(-79)" fill="#1a1a1a"/><rect x="616.93" y="569.89" width="5.22" height="62.49" transform="translate(-88.76 1094.6) rotate(-79)" fill="#1a1a1a"/><rect x="618.15" y="585.31" width="5.22" height="55.55" transform="translate(-99.5 1105.45) rotate(-79)" fill="#1a1a1a"/><path d="M578.14,630.25l-12.59-2.44-2.46,12.65Z" opacity="0.15" style="isolation:isolate"/><path d="M579.56,628.4l-11.14-2.16-2.17,11.19Z" fill="#fff"/><path d="M40.6,84.68,23.19,149.59,113,173.68l17.41-64.92Z" opacity="0.15" style="isolation:isolate"/><path d="M42.13,87.47l-16.46,61.4,85,22.79,16.46-61.41Z" fill="#fff"/><rect x="80.79" y="100.03" width="4.71" height="41.73" transform="translate(-55.16 169.9) rotate(-74.99)" fill="#1a1a1a"/><rect x="71.06" y="100.84" width="4.71" height="56.34" transform="translate(-70.21 166.5) rotate(-74.99)" fill="#1a1a1a"/><rect x="71.4" y="114.79" width="4.71" height="50.08" transform="matrix(0.26, -0.97, 0.97, 0.26, -80.41, 174.85)" fill="#1a1a1a"/><path d="M34.34,152.58l-11.17-3-3,11.22Z" opacity="0.15" style="isolation:isolate"/><path d="M35.73,151l-9.88-2.65-2.66,9.93Z" fill="#fff"/><path d="M325.5,53h121A17.51,17.51,0,0,1,464,70.5h0A17.51,17.51,0,0,1,446.5,88h-121A17.51,17.51,0,0,1,308,70.5h0A17.51,17.51,0,0,1,325.5,53Z" fill="#fff"/><path d="M346.5,68h80a2.5,2.5,0,0,1,2.5,2.5h0a2.5,2.5,0,0,1-2.5,2.5h-80a2.5,2.5,0,0,1-2.5-2.5h0A2.5,2.5,0,0,1,346.5,68Z" opacity="0.15" style="isolation:isolate"/><circle cx="439.5" cy="70.5" r="3.5" opacity="0.15" style="isolation:isolate"/><path d="M246.5,319.86l-19.34,99.47L89.52,392.58l19.33-99.47Z" opacity="0.15" style="isolation:isolate"/><path d="M242.58,322.64l-18.29,94.09L94.08,391.42l18.29-94.09Z" fill="#fff"/><rect x="161.35" y="309.35" width="7.1" height="62.92" transform="translate(-201.11 437.65) rotate(-79)" fill="#1a1a1a"/><rect x="169.18" y="315.77" width="7.1" height="84.94" transform="translate(-211.89 459.44) rotate(-79)" fill="#1a1a1a"/><rect x="161.57" y="334.92" width="7.1" height="75.5" transform="translate(-232.22 463.65) rotate(-79)" fill="#1a1a1a"/><path d="M210.09,416l17.11,3.33-3.35,17.2Z" opacity="0.15" style="isolation:isolate"/><path d="M209.24,413l15.13,3-3,15.21Z" fill="#fff"/><g opacity="0.15"><path d="M561.16,209a87.62,87.62,0,1,0-87.61,87.61A87.61,87.61,0,0,0,561.16,209Z"/></g><path d="M558.54,209a85,85,0,1,0-85,85A85,85,0,0,0,558.54,209Z" fill="#f9f9f9"/><rect x="461.42" y="230.44" width="24.89" height="27.29" fill="#d9a78c"/><path d="M473.55,294a84.63,84.63,0,0,0,46.3-13.73c-2.13-10.21-5.09-22.76-7.17-25.16-5.77-6.67-14.45-8.11-22.39-10.15H486c0,5.37-5.59,9.72-12.49,9.72V294Z" fill="#c74043"/><path d="M461.26,245H457c-7.91,2-16.57,3.48-22.33,10.15-2.08,2.41-5.05,15.09-7.18,25.33a84.58,84.58,0,0,0,46,13.56h.15V254.68C466.83,254.68,461.26,250.33,461.26,245Z" fill="#c74043"/><path d="M473.86,152.33c12.09,0,31.2,6.88,31.2,39.07,0,18.59-6.06,30.77-8.7,34.14-2.43,3.1-16.09,9.7-22.5,9.7Z" fill="#eac0a7"/><path d="M511.07,199.08c.53-5.15-1.92-9.71-5.47-10.2s-6.87,3.29-7.41,8.43,1.92,9.71,5.48,10.2S510.54,204.22,511.07,199.08Z" fill="#eac0a7"/><path d="M473.86,152.33c-12.09,0-31.2,6.88-31.2,39.07,0,18.59,6.06,30.77,8.7,34.14,2.43,3.1,16.09,9.7,22.5,9.7Z" fill="#f2d7bc"/><path d="M436.65,199.08c-.53-5.15,1.92-9.71,5.47-10.2s6.87,3.29,7.41,8.43-1.92,9.71-5.48,10.2S437.18,204.22,436.65,199.08Z" fill="#f2d7bc"/><path d="M473.86,223.1c5.63,0,10.2-1.87,10.2-4.16h-20.4C463.66,221.23,468.23,223.1,473.86,223.1Z" fill="#fff"/><path d="M499,194c1.3-3.32,3.88-5.44,6.6-5.07h0a20.33,20.33,0,0,0,0-13.18c-9-25.63,1.23-30.2,1.23-30.2s-10-.45-17.68,6c5.33-8.26,7.72-10.39,7.72-10.39s-11.18-2.39-23.16,9.85a34.09,34.09,0,0,1,5.86-10s-25,.19-34.08,18.3c-5.16,10.32-5.56,21.5-4.31,29.95a5,5,0,0,1,.94-.25,4.89,4.89,0,0,1,3.37.83v-7.9c4.79-2.13,9.85-4.8,9.58-15.45h35.15s-.8,12,8.78,14.91Z" fill="#553828"/><path d="M473.71,257.83c9.21,0,16.69-5.76,16.69-12.87h-4.28c0,5.36-5.55,9.7-12.41,9.72s-12.42-4.36-12.42-9.72H457C457,252.07,464.49,257.83,473.71,257.83Z" fill="#0f958c"/><circle cx="473.55" cy="209" r="85" transform="translate(100.09 567.41) rotate(-67.64)" fill="none"/><g opacity="0.15"><path d="M562.23,464a55.68,55.68,0,1,0-55.67,55.67A55.67,55.67,0,0,0,562.23,464Z"/></g><path d="M560.57,464a54,54,0,1,0-54,54A54,54,0,0,0,560.57,464Z" fill="#fff"/><rect x="498.65" y="477.57" width="15.82" height="17.35" fill="#d9a78c"/><path d="M533.65,492.42c-2.22-2.32-17.26-4.52-17.26-4.52l-9.83.82V518h0a53.71,53.71,0,0,0,31.69-10.29C536.71,501,534.81,493.62,533.65,492.42Z" fill="#c0d4df"/><path d="M506.56,427.93c7.68,0,19.83,4.37,19.83,24.83,0,11.81-3.86,19.55-5.53,21.69-1.55,2-10.23,6.17-14.3,6.17Z" fill="#eac0a7"/><path d="M530.21,457.64c.33-3.27-1.22-6.17-3.48-6.48s-4.37,2.09-4.71,5.36,1.22,6.17,3.48,6.48S529.87,460.91,530.21,457.64Z" fill="#eac0a7"/><path d="M506.56,427.93c-7.68,0-19.83,4.37-19.83,24.83,0,11.81,3.85,19.55,5.53,21.69,1.55,2,10.23,6.17,14.3,6.17Z" fill="#f2d7bc"/><path d="M482.91,457.64c-.34-3.27,1.22-6.17,3.48-6.48s4.37,2.09,4.71,5.36-1.22,6.17-3.48,6.48S483.25,460.91,482.91,457.64Z" fill="#f2d7bc"/><path d="M479.47,492.42c-1.16,1.2-3.06,8.6-4.61,15.25A53.74,53.74,0,0,0,506.56,518V488.72l-9.83-.82S481.69,490.1,479.47,492.42Z" fill="#cfe1eb"/><polygon points="506.56 488.72 498.53 485.49 496.55 487.5 500.55 496.36 506.56 488.72" fill="#fff"/><polygon points="506.56 488.72 514.59 485.49 516.57 487.5 512.57 496.36 506.56 488.72" fill="#fff"/><path d="M526.82,451.64s6.5-29.63-20.4-29.63-20.25,28.82-20.25,28.82,3.7-2.12,3.7,7.34h.68a105.31,105.31,0,0,0,1.7-12c9.51,0,17.92-1.22,25-7.07,4,0,4.56,5,4.56,8.83l-1.76.68s1.7,3.33,1.83,9.59h1.21S522.9,447.74,526.82,451.64Z" fill="#8b5f3c"/><path d="M506.56,472.9c3.58,0,6.48-1.18,6.48-2.64h-13C500.08,471.72,503,472.9,506.56,472.9Z" fill="#fff"/><path d="M560.57,463.94a54,54,0,1,0-54,54A54,54,0,0,0,560.57,463.94Z" fill="none"/><rect x="575.5" y="87.27" width="78.99" height="56.83" transform="translate(67.95 -188.2) rotate(18.4)" opacity="0.15"/><rect x="578" y="89.07" width="73.99" height="53.24" transform="translate(67.95 -188.2) rotate(18.4)" fill="#fff"/><polygon points="581.86 113.11 577.5 126.24 638.13 146.41 645.81 123.32 633.49 105.69 607.86 120.75 596.78 105.16 581.86 113.11" fill="#1a1a1a" opacity="0.8"/><circle cx="598.76" cy="94.16" r="6.02" fill="#1a1a1a" opacity="0.8"/><rect x="202.85" y="152.04" width="69.55" height="50.04" transform="translate(-48.64 100.44) rotate(-21.71)" opacity="0.15"/><rect x="205.05" y="153.62" width="65.15" height="46.87" transform="translate(-48.64 100.44) rotate(-21.71)" fill="#fff"/><polygon points="213.85 194.12 218.36 205.44 270.63 184.63 262.71 164.72 244.41 159.84 235.7 184.52 219.39 180.31 213.85 194.12" fill="#1a1a1a" opacity="0.8"/><circle cx="214.48" cy="171.77" r="5.3" fill="#1a1a1a" opacity="0.8"/><rect x="47.51" y="588.55" width="92.98" height="66.9" transform="translate(342.93 44.29) rotate(31.9)" opacity="0.15"/><rect x="50.45" y="590.67" width="87.09" height="62.67" transform="translate(342.93 44.29) rotate(31.9)" fill="#fff"/><polygon points="56.79 609.95 48.18 623.77 112.04 663.52 127.18 639.21 117.92 615.64 84.45 625.84 76.05 604.95 56.79 609.95" fill="#1a1a1a" opacity="0.8"/><circle cx="81.34" cy="592.9" r="7.09" fill="#1a1a1a" opacity="0.8"/><path d="M263.36,570.19a22.8,22.8,0,0,1-.81-5.53s-17.23,5.82-21.08,11.83c-1.83,5.44-2.9,14.74-3.48,21.71a71.8,71.8,0,0,0,35,9.06h0V578.53S265.1,576.58,263.36,570.19Z" fill="#eac8ad"/><path d="M273,578.53v28.73a71.8,71.8,0,0,0,35-9.06c-.58-7-1.65-16.27-3.48-21.71-3.84-6-21.08-11.83-21.08-11.83a22.8,22.8,0,0,1-.81,5.53C280.86,576.58,273,578.53,273,578.53Z" fill="#eac8ad"/><g opacity="0.15"><path d="M346.58,535.11a73.6,73.6,0,1,0-73.6,73.6A73.6,73.6,0,0,0,346.58,535.11Z"/></g><path d="M345.12,535.11A72.14,72.14,0,1,0,273,607.26,72.14,72.14,0,0,0,345.12,535.11Z" fill="#f9f9f9"/><circle cx="273.11" cy="509.76" r="31.58" transform="translate(-280.46 342.43) rotate(-45)" fill="#461811"/><polygon points="283.68 577.38 272.98 607.39 262.55 577.38 262.55 554.21 283.68 554.21 283.68 577.38" fill="#eac8ad"/><path d="M273.11,490c-10.25,0-26.48,5.84-26.48,33.16,0,15.78,6.15,23.22,8.39,26.08,2.07,2.63,12.65,11.13,18.09,11.13Z" fill="#f2d7bc"/><path d="M241.53,529.68c-.45-4.37,1.63-8.24,4.65-8.66s5.83,2.79,6.28,7.16-1.63,8.24-4.65,8.65S242,534,241.53,529.68Z" fill="#f2d7bc"/><path d="M273,490c10.26,0,26.48,5.84,26.48,33.16,0,15.78-6.15,23.22-8.39,26.08-2.06,2.63-12.65,11.13-18.09,11.13Z" fill="#eac0a7"/><path d="M304.7,529.68c.45-4.37-1.63-8.24-4.65-8.66s-5.83,2.79-6.28,7.16,1.63,8.24,4.64,8.65S304.25,534,304.7,529.68Z" fill="#eac0a7"/><path d="M273.11,550.75c4,0,7.25-2.46,7.25-5.49H265.87C265.87,548.29,269.12,550.75,273.11,550.75Z" fill="#fff"/><path d="M271.62,482.14c-18.74,0-24.44,16.42-24.44,24-6.8,9.45.61,17.9,5.86,20.87v-4.65c0-6.11,5.81-11.77,14.53-10.83,7.82.85,12.75-3.57,16.91-11.09C289.62,490.37,283.21,482.14,271.62,482.14Z" fill="#461811"/><path d="M283.68,497.34s4.38,17.78,16.37,23.68c2.14-16,3.4-12.61,0-21s-16.37-14.67-16.37-14.67Z" fill="#461811"/><path d="M241.47,576.49c-1.83,5.44-2.9,14.74-3.48,21.71a71.8,71.8,0,0,0,35,9.06h0V569l-10.43-4.35S245.32,570.48,241.47,576.49Z" fill="#f1f2f2"/><path d="M273,569v38.25a71.8,71.8,0,0,0,35-9.06c-.58-7-1.65-16.27-3.48-21.71-3.84-6-21.08-11.83-21.08-11.83Z" fill="#e6e7e8"/><path d="M267.19,483.52s-16-24.77-35.73-5.53,3.07,54.87-8.79,60.48c13-1.67,16.14-20,14.87-36.14-1.12-14.27,11.38-21.17,21.12-15.32C262.75,489.46,267.19,483.52,267.19,483.52Z" fill="#461811"/><polygon points="272.98 568.97 262.25 564.66 259.61 567.34 264.95 579.18 272.98 568.97" fill="#fff"/><polygon points="272.98 568.97 283.71 564.66 286.35 567.34 281.01 579.18 272.98 568.97" fill="#fff"/><path d="M345.12,535.11A72.14,72.14,0,1,0,273,607.26,72.14,72.14,0,0,0,345.12,535.11Z" fill="none"/></g></g></svg>