<svg xmlns="http://www.w3.org/2000/svg" viewBox="0 0 2427.5 491.19"><title>randomly-full</title><g id="Layer_2" data-name="Layer 2"><g id="Layer_1-2" data-name="Layer 1"><path d="M826.5,150.6h0a67,67,0,0,1,11,1h0a78.8,78.8,0,0,1,13,1h0q6,1,11,2h0a30.48,30.48,0,0,1,7,2h0l-6,33h0a90.24,90.24,0,0,0-15-4h0q-10-2-26-2h0a106.44,106.44,0,0,0-21,2h0q-10,2-13,3h0v175h-37v-200h0q13-4,32-9h0A224.48,224.48,0,0,1,826.5,150.6Zm148,186h0q14,0,24-1h0a62.72,62.72,0,0,0,17-2h0v-62h0q-4-2-13-3h0a102.73,102.73,0,0,0-22-2h0q-8,0-18,1h0a125.94,125.94,0,0,0-17,5h0a34.73,34.73,0,0,0-13,11h0q-5,6-5,17h0q0,20,13,28h0Q952.5,336.6,974.5,336.6Zm-3-187h0q23,0,38,6h0a66.58,66.58,0,0,1,25,17h0q9,10,13,25h0a116.53,116.53,0,0,1,4,32h0v130h0q-5,1-13,2h0a160.23,160.23,0,0,1-20,3h0q-10,1-23,2h0q-13,1-25,1h0a116.92,116.92,0,0,1-32-4h0a65.39,65.39,0,0,1-26-11h0a52.89,52.89,0,0,1-17-21h0q-6-12-6-30h0q0-18,7-30h0a60.43,60.43,0,0,1,19-20h0a74.54,74.54,0,0,1,28-11h0a139.63,139.63,0,0,1,34-4h0a67,67,0,0,1,11,1h0a72.51,72.51,0,0,1,12,1h0q5,1,9,2h0a27.83,27.83,0,0,0,6,1h0v-10h0a83,83,0,0,0-2-18h0a43.34,43.34,0,0,0-7-16h0a41.65,41.65,0,0,0-15-11h0q-9-5-23-5h0a153.6,153.6,0,0,0-32,3h0q-14,3-21,5h0l-4-30h0q7-4,24-7h0A207,207,0,0,1,971.5,149.6Zm142,214v-202h0q13-4,34-7h0q21-4,49-4h0q24,0,41,7h0a64.89,64.89,0,0,1,26,20h0q10,12,14,30h0a179.47,179.47,0,0,1,4,39h0v117h-37v-109h0a159.16,159.16,0,0,0-3-33h0q-3-14-9-22h0a36.28,36.28,0,0,0-16-12h0q-10-4-24-4h-13a73.61,73.61,0,0,1-12,1h0q-6,1-10,2h0a42.88,42.88,0,0,1-7,1h0v176Zm364-33v-131h0q-7-6-20-11h0a77.2,77.2,0,0,0-28-5h0q-16,0-27,5h0a49.87,49.87,0,0,0-19,16h0a75.48,75.48,0,0,0-10,25h0a143,143,0,0,0-3,30h0q0,36,18,56h0q18,20,48,20h0a130.84,130.84,0,0,0,25-2h0a76.62,76.62,0,0,0,16-3Zm0-166V59.6l37-7v305h0q-13,3-33,7h0a313.15,313.15,0,0,1-46,3h0q-24,0-43-7h0a102.33,102.33,0,0,1-33-22h0a108.62,108.62,0,0,1-21-34h0q-7-20-7-45h0a152.64,152.64,0,0,1,6-44h0a102.45,102.45,0,0,1,18-35h0a83.42,83.42,0,0,1,30-22h0q17-8,39-8h0q18,0,32,5h0q14,4,21,9Zm285,95h0a117.54,117.54,0,0,1-8,44h0a106.62,106.62,0,0,1-20,35h0a93.93,93.93,0,0,1-31,22h0a95,95,0,0,1-39,8h0a95,95,0,0,1-39-8h0a93.93,93.93,0,0,1-31-22h0a106.62,106.62,0,0,1-20-35h0a117.54,117.54,0,0,1-8-44h0q0-25,8-45h0a106.52,106.52,0,0,1,20-35h0a93.64,93.64,0,0,1,31-22h0a94.82,94.82,0,0,1,39-8h0a94.82,94.82,0,0,1,39,8h0a93.64,93.64,0,0,1,31,22h0a106.52,106.52,0,0,1,20,35h0Q1762.5,234.6,1762.5,259.6Zm-39,0h0q0-36-16-56h0q-16-21-43-21h0q-27,0-43,21h0q-16,20-16,56h0q0,35,16,55h0q16,21,43,21h0q27,0,43-21h0Q1723.51,294.59,1723.5,259.6Zm91,104v-202h0q13-4,34-7h0q21-4,48-4h0q20,0,34,6h0a55.27,55.27,0,0,1,23,15h0a87.64,87.64,0,0,1,9-5h0a68.49,68.49,0,0,1,14-7h0a87.48,87.48,0,0,1,20-6h0a87,87,0,0,1,23-3h0q24,0,39,7h0q16,7,24,20h0a74.74,74.74,0,0,1,12,30h0a237.59,237.59,0,0,1,3,39h0v117h-37v-109h0a215.69,215.69,0,0,0-2-32h0q-2-13-7-22h0a29.33,29.33,0,0,0-14-13h0q-8-4-22-4h0q-19,0-31,5h0q-12,5-16,9h0a109.75,109.75,0,0,1,4,23h0a158.7,158.7,0,0,1,2,26h0v117h-37v-109h0a215.69,215.69,0,0,0-2-32h0q-2-13-7-22h0a29.33,29.33,0,0,0-14-13h0q-8-4-22-4h-12a73.61,73.61,0,0,1-12,1h0q-6,1-10,2h0a42.88,42.88,0,0,1-7,1h0v176Zm412-28-5,32h0q-35-1-49-15h0q-14-14-14-44h0V59.6l37-7v250h0a93.25,93.25,0,0,0,1,15h0a25.05,25.05,0,0,0,6,10h0q3,4,9,5h0a74.63,74.63,0,0,0,15,3Zm10,96,7-30h0q5,2,12,4h0a47.67,47.67,0,0,0,13,2h0q22,0,35-10h0q12-10,22-32h0q-25-48-47-101h0a833.21,833.21,0,0,1-36-109h40a336.76,336.76,0,0,0,11,38h0q6,21,13,43h0q8,22,17,44h0q9,22,18,43h0q15-42,27-84h0q11-41,21-84h38q-14,58-32,113h0a937.86,937.86,0,0,1-38,101h0a264.83,264.83,0,0,1-16,31h0a98.37,98.37,0,0,1-19,21h0a70.29,70.29,0,0,1-24,13h0a98.6,98.6,0,0,1-29,4h0a37.55,37.55,0,0,1-9-1h0a51.39,51.39,0,0,1-10-1h0a39.48,39.48,0,0,1-8-3h0a31.53,31.53,0,0,1-6-2Z" fill="#212121"/><rect width="590.48" height="425.89" fill="#212121"/><polyline points="525.18 425.89 590.48 425.89 590.48 491.19" fill="#212121"/><rect x="120.53" y="197.44" width="377.79" height="31.01" fill="#fff"/><rect x="120.53" y="266.96" width="335.92" height="31.01" fill="#fff"/><rect x="120.53" y="127.92" width="279.72" height="31.01" fill="#fff"/></g></g></svg>